<svg width="28" height="28" viewBox="0 0 28 28" fill="none" xmlns="http://www.w3.org/2000/svg">
<path d="M3.5 12.4563C3.5 11.2219 4.06989 10.0567 5.04424 9.2989L11.5442 4.24335C12.9887 3.1199 15.0113 3.1199 16.4558 4.24335L22.9558 9.2989C23.9301 10.0567 24.5 11.222 24.5 12.4563V23.3333C24.5 23.9521 24.2542 24.5456 23.8166 24.9832C23.379 25.4208 22.7855 25.6666 22.1667 25.6666H5.83333C5.21449 25.6666 4.621 25.4208 4.18342 24.9832C3.74583 24.5456 3.5 23.9521 3.5 23.3333V12.4563Z" stroke="#000" stroke-width="2" stroke-linecap="round" stroke-linejoin="round"/>
<path d="M10.5 25.6667V17.5C10.5 15.567 12.067 14 14 14V14C15.933 14 17.5 15.567 17.5 17.5V25.6667" stroke="#000" stroke-width="2" stroke-linecap="round" stroke-linejoin="round"/>
</svg>
