<svg xmlns="http://www.w3.org/2000/svg" viewBox="0 0 300 80"><path d="M80.5 30.5L51.1 1.8v44.7h7.7V19.4L88.2 48V3.4h-7.7v27.1zm198.3-8.2l16.7-19h-9.1L268.1 24V3.4h-7.7v43h7.7V33.8l5.4-6L287 46.4h9l-17.2-24.1zM193.1 2.6c-12.3 0-22.3 10-22.3 22.3s10 22.3 22.3 22.3 22.3-10 22.3-22.3-10-22.3-22.3-22.3zm0 37.6c-8.5 0-15.3-6.9-15.3-15.3 0-8.5 6.9-15.3 15.3-15.3 8.5 0 15.3 6.9 15.3 15.3s-6.9 15.3-15.3 15.3zM5.5 46.4h8.2l3.8-8.3H36l3.8 8.3H48L26.8 1.3 5.5 46.4zm14.9-15l6.4-14 6.4 14H20.4zm70.8 15h8.2l3.8-8.3h18.5l3.8 8.3h8.2L112.5 1.3 91.2 46.4zm14.9-15l6.4-14 6.4 14h-12.8zM167.6 17c0-3.9-1.4-7.1-4.1-9.7-2.7-2.7-6-4-9.9-4h-16.7v43h7.7V31.1h7.7l9.2 15.3h8.7l-10.4-17.2c4.6-1.9 7.8-6.6 7.8-12.2zm-14.8 7.2h-8.2V10.3h8.8c3.7 0 6.5 2.8 6.5 6.8 0 4.2-2.9 7.1-7.1 7.1zm87.7-14.6c4.1 0 7.9 1.6 10.8 4.5l4.9-4.9c-4.4-4.4-10.1-6.5-15.8-6.5S229 4.9 224.6 9.2c-8.7 8.7-8.7 22.9 0 31.6 4.4 4.4 10.1 6.5 15.8 6.5s11.4-2.2 15.8-6.5l-4.9-4.9c-2.9 2.9-6.7 4.5-10.8 4.5s-7.9-1.6-10.8-4.5c-6-6-6-15.7 0-21.7 2.9-3 6.7-4.6 10.8-4.6zM48.4 78.9h-.7l-4.8-11h2.5l2.7 6.6 2.7-6.6h2.5l-4.9 11zm17.9-.2h-2.4l-.6-1.4h-4.4l-.6 1.4h-2.4l4.8-11h.7l4.9 11zm-6.6-3.2h2.9l-1.4-3.6-1.5 3.6zm13.7 1.2h4.7v2h-6.9V67.9h2.2v8.8zm18.5-2.5c0 .7-.1 1.4-.4 1.9-.2.6-.6 1.1-1 1.5s-.9.7-1.4.9c-.6.2-1.2.3-1.8.3-.7 0-1.3-.1-1.8-.3-.6-.2-1-.5-1.5-.9-.4-.4-.7-.9-1-1.5-.2-.6-.3-1.2-.3-1.9v-6.3H85v6.5c0 .4.1.8.2 1.1.1.3.3.6.5.8.2.2.5.4.8.5s.6.2.9.2.7-.1.9-.2c.3-.1.5-.3.8-.5.2-.2.4-.5.5-.8s.2-.7.2-1.1v-6.5H92l-.1 6.3zm13.2-4.3H100v2.2h3.7V74H100v2.7h5.3v2h-7.5V67.9h7.3v2zm9.1-2.2c.9 0 1.6.2 2.2.6s1.1.9 1.4 1.5l-1.5 1.2c-.3-.4-.6-.7-.9-.9-.3-.2-.7-.3-1.2-.3-.4 0-.7.1-.9.3-.3.2-.4.4-.4.8 0 .3.1.6.3.7.2.2.5.3.9.5l1.2.5c.9.4 1.5.8 2 1.3s.7 1.1.7 1.9c0 .5-.1 1-.3 1.4-.2.4-.5.7-.8 1s-.7.5-1.2.6-1 .2-1.5.2c-.9 0-1.8-.2-2.5-.7-.7-.4-1.3-1-1.7-1.7l1.5-1.1c.1.2.3.4.5.6s.4.4.6.5.4.3.7.4c.3.1.6.1.9.1.5 0 .9-.1 1.1-.3.3-.2.4-.5.4-.9 0-.3-.1-.6-.4-.8-.2-.2-.6-.4-1-.6l-1.1-.5c-.4-.2-.7-.4-1.1-.6-.3-.2-.6-.4-.8-.7-.2-.3-.4-.5-.5-.8s-.2-.6-.2-1c0-.5.1-.9.3-1.3.2-.4.4-.7.8-1 .3-.3.7-.5 1.1-.6.4-.2.9-.3 1.4-.3zm22.7 0c.8 0 1.5.1 2.2.4s1.3.7 1.8 1.2.9 1.1 1.2 1.8c.3.7.4 1.4.4 2.2 0 .8-.1 1.5-.4 2.2-.3.7-.7 1.3-1.2 1.8s-1.1.9-1.8 1.2c-.7.3-1.4.4-2.2.4s-1.5-.1-2.2-.4-1.3-.7-1.8-1.2-.9-1.1-1.2-1.8c-.3-.7-.5-1.4-.5-2.2 0-.8.2-1.5.5-2.2s.7-1.3 1.2-1.8 1.1-.9 1.8-1.2c.6-.3 1.4-.4 2.2-.4zm0 2c-.5 0-1 .1-1.4.3-.4.2-.8.4-1.1.7-.3.3-.6.7-.7 1.1-.2.4-.3.9-.3 1.4s.1 1 .3 1.4.4.8.7 1.1c.3.3.7.6 1.1.7.4.2.9.3 1.4.3s.9-.1 1.4-.3c.4-.2.8-.4 1.1-.7.3-.3.6-.7.7-1.1.2-.4.3-.9.3-1.4s-.1-1-.3-1.4-.4-.8-.7-1.1c-.3-.3-.7-.6-1.1-.7-.5-.2-.9-.3-1.4-.3zm14.9 9.2h-.7l-4.8-11h2.5l2.7 6.6 2.7-6.6h2.5l-4.9 11zm17-9h-5.1v2.2h3.7V74h-3.7v2.7h5.3v2h-7.5V67.9h7.3v2zm9.7-2c.6 0 1.1.1 1.6.2.5.2.9.4 1.2.7.3.3.6.7.8 1.1s.3.9.3 1.4c0 .7-.2 1.3-.5 1.9-.3.5-.8.9-1.4 1.2l3 4.2H181l-2.8-3.8h-1.6v3.8h-2.2V67.9h4.1zm-1.8 1.9v3.1h1.8c.5 0 .9-.1 1.2-.4s.4-.7.4-1.1c0-.5-.1-.8-.4-1.1-.3-.3-.7-.4-1.2-.4l-1.8-.1zm24.5 9.1h-.7l-4.8-11h2.5l2.7 6.6 2.7-6.6h2.5l-4.9 11zm17.9-.2h-2.4l-.6-1.4h-4.4l-.6 1.4h-2.4l4.8-11h.7l4.9 11zm-6.6-3.2h2.9l-1.4-3.6-1.5 3.6zm13.7 1.2h4.7v2H224V67.9h2.2v8.8zm18.6-2.5c0 .7-.1 1.4-.4 1.9-.2.6-.6 1.1-1 1.5s-.9.7-1.4.9c-.6.2-1.2.3-1.8.3-.7 0-1.3-.1-1.8-.3-.6-.2-1-.5-1.5-.9-.4-.4-.7-.9-1-1.5-.2-.6-.3-1.2-.3-1.9v-6.3h2.2v6.5c0 .4.1.8.2 1.1.1.3.3.6.5.8.2.2.5.4.8.5s.6.2.9.2c.3 0 .7-.1.9-.2.3-.1.5-.3.8-.5.2-.2.4-.5.5-.8s.2-.7.2-1.1v-6.5h2.2v6.3zm13.2-4.3h-5.1v2.2h3.7V74h-3.7v2.7h5.3v2h-7.5V67.9h7.3v2z" fill="#231f20"/><path fill="#a054a0" d="M5.5 56.2H296v1.9H5.5z"/></svg>