<svg width="24" height="24" viewBox="0 0 24 24" fill="none" xmlns="http://www.w3.org/2000/svg">
<g clip-path="url(#clip0_444_3664)">
<path d="M24 12C24 5.37255 18.6274 -3.05176e-05 12 -3.05176e-05C5.37258 -3.05176e-05 0 5.37255 0 12C0 17.9895 4.38823 22.954 10.125 23.8541V15.4687H7.07812V12H10.125V9.35622C10.125 6.34872 11.9165 4.68747 14.6576 4.68747C15.9705 4.68747 17.3438 4.92184 17.3438 4.92184V7.87497H15.8306C14.3399 7.87497 13.875 8.79997 13.875 9.74897V12H17.2031L16.6711 15.4687H13.875V23.8541C19.6118 22.954 24 17.9895 24 12Z" fill="#EBEBEB"/>
<path d="M16.6711 15.4687L17.2031 12H13.875V9.74897C13.875 8.79997 14.3399 7.87497 15.8306 7.87497H17.3438V4.92184C17.3438 4.92184 15.9705 4.68747 14.6576 4.68747C11.9165 4.68747 10.125 6.34872 10.125 9.35622V12H7.07812V15.4687H10.125V23.8541C11.3674 24.0486 12.6326 24.0486 13.875 23.8541V15.4687H16.6711Z" fill="#884EA7"/>
</g>
<defs>
<clipPath id="clip0_444_3664">
<rect width="24" height="24" fill="white"/>
</clipPath>
</defs>
</svg>
