<svg width="24" height="24" viewBox="0 0 24 24" fill="none" xmlns="http://www.w3.org/2000/svg">
<g clip-path="url(#clip0_444_3667)">
<mask id="mask0_444_3667" style="mask-type:luminance" maskUnits="userSpaceOnUse" x="0" y="0" width="24" height="24">
<path d="M12 24C18.6274 24 24 18.6274 24 12C24 5.37255 18.6274 -3.05176e-05 12 -3.05176e-05C5.37258 -3.05176e-05 0 5.37255 0 12C0 18.6274 5.37258 24 12 24Z" fill="white"/>
</mask>
<g mask="url(#mask0_444_3667)">
<path d="M5.15625 48.5625C19.3948 48.5625 30.9375 37.0198 30.9375 22.7812C30.9375 8.54263 19.3948 -3.00003 5.15625 -3.00003C-9.08234 -3.00003 -20.625 8.54263 -20.625 22.7812C-20.625 37.0198 -9.08234 48.5625 5.15625 48.5625Z" fill="#EBEBEB"/>
</g>
<path d="M15.375 9.56247C15.8928 9.56247 16.3125 9.14274 16.3125 8.62497C16.3125 8.1072 15.8928 7.68747 15.375 7.68747C14.8572 7.68747 14.4375 8.1072 14.4375 8.62497C14.4375 9.14274 14.8572 9.56247 15.375 9.56247Z" fill="#EBEBEB"/>
<path d="M12 8.99997C11.4067 8.99997 10.8266 9.17592 10.3333 9.50556C9.83994 9.83521 9.45543 10.3037 9.22836 10.8519C9.0013 11.4001 8.94189 12.0033 9.05765 12.5852C9.1734 13.1672 9.45912 13.7017 9.87868 14.1213C10.2982 14.5408 10.8328 14.8266 11.4147 14.9423C11.9967 15.0581 12.5999 14.9987 13.1481 14.7716C13.6962 14.5445 14.1648 14.16 14.4944 13.6667C14.8241 13.1733 15 12.5933 15 12C15 11.2043 14.6839 10.4413 14.1213 9.87865C13.5587 9.31604 12.7957 8.99997 12 8.99997ZM12 13.5C11.7033 13.5 11.4133 13.412 11.1666 13.2472C10.92 13.0824 10.7277 12.8481 10.6142 12.574C10.5007 12.2999 10.4709 11.9983 10.5288 11.7073C10.5867 11.4164 10.7296 11.1491 10.9393 10.9393C11.1491 10.7295 11.4164 10.5867 11.7074 10.5288C11.9983 10.4709 12.2999 10.5006 12.574 10.6142C12.8481 10.7277 13.0824 10.9199 13.2472 11.1666C13.412 11.4133 13.5 11.7033 13.5 12C13.5 12.3978 13.342 12.7793 13.0607 13.0606C12.7794 13.3419 12.3978 13.5 12 13.5Z" fill="#884EA7"/>
<path d="M15.75 5.99997H8.25C7.00736 5.99997 6 7.00733 6 8.24997V15.75C6 16.9926 7.00736 18 8.25 18H15.75C16.9926 18 18 16.9926 18 15.75V8.24997C18 7.00733 16.9926 5.99997 15.75 5.99997Z" stroke="#884EA7" stroke-miterlimit="10"/>
</g>
<defs>
<clipPath id="clip0_444_3667">
<rect width="24" height="24" fill="white"/>
</clipPath>
</defs>
</svg>
