<svg width="24" height="24" viewBox="0 0 24 24" fill="none" xmlns="http://www.w3.org/2000/svg">
<g clip-path="url(#clip0_444_3701)">
<path d="M0.370316 12C0.370316 5.57809 5.57813 0.370281 12 0.370281C18.4219 0.370281 23.6297 5.57809 23.6297 12C23.6297 18.4218 18.4219 23.6297 12 23.6297C5.57813 23.6297 0.370316 18.4218 0.370316 12Z" fill="#EBEBEB"/>
<path d="M17.9672 11.6812V15.9937H15.4688V11.9718C15.4688 10.9593 15.1078 10.2703 14.2031 10.2703C13.5141 10.2703 13.1016 10.7343 12.9188 11.1843C12.8531 11.3437 12.8344 11.5687 12.8344 11.7937V15.9937H10.3359C10.3359 15.9937 10.3688 9.1781 10.3359 8.47497H12.8344V9.53903C12.8297 9.54841 12.825 9.55778 12.8203 9.56247H12.8344V9.53903C13.1672 9.0281 13.7578 8.29685 15.0891 8.29685C16.7344 8.29685 17.9672 9.37028 17.9672 11.6812ZM7.72031 4.84685C6.86719 4.84685 6.30469 5.40935 6.30469 6.14528C6.30469 6.86716 6.84844 7.44372 7.6875 7.44372H7.70625C8.57812 7.44372 9.12188 6.86716 9.12188 6.14528C9.09844 5.40935 8.57344 4.84685 7.72031 4.84685ZM6.45 15.9937H8.95313V8.47497H6.45469V15.9937H6.45Z" fill="#884EA7"/>
</g>
<defs>
<clipPath id="clip0_444_3701">
<rect width="24" height="24" fill="white"/>
</clipPath>
</defs>
</svg>
