<svg width="24" height="24" viewBox="0 0 24 24" fill="none" xmlns="http://www.w3.org/2000/svg">
<g clip-path="url(#clip0_444_3661)">
<path fill-rule="evenodd" clip-rule="evenodd" d="M12 -3.05176e-05C18.6199 -3.05176e-05 24 5.38004 24 12C24 18.6199 18.6199 24 12 24C5.38007 24 0 18.6199 0 12C0 5.38004 5.38007 -3.05176e-05 12 -3.05176e-05Z" fill="#EBEBEB"/>
<path fill-rule="evenodd" clip-rule="evenodd" d="M12 10.3616C11.8893 10.0959 11.845 9.83023 11.845 9.52026C11.845 8.32469 12.8192 7.35052 14.0148 7.35052C14.9668 7.35052 15.631 7.70477 16.0295 8.28041C16.3173 8.19185 16.7823 8.03687 17.1144 7.70477C17.1144 7.70477 16.9151 8.36897 16.2952 8.7675C16.3173 8.83392 16.3395 8.8782 16.3616 8.94462C16.6052 8.94462 16.9373 8.90034 17.3801 8.6568C17.3801 8.6568 17.1365 9.29886 16.4945 9.69739C17.5129 13.4834 13.1956 18.9963 6.70849 15.5424C7.7048 15.5203 8.65683 15.2103 9.47602 14.7454C8.01476 14.1919 7.39484 13.262 7.32841 13.0406C7.5941 13.107 8.2583 12.9963 8.2583 12.9963C6.50923 12.2657 6.61993 10.6716 6.61993 10.6716C6.97417 11.0922 7.54982 10.8708 7.54982 10.8708C6.04428 9.47598 7.01845 7.92617 7.01845 7.92617C8.50185 10.0959 11.1808 10.3395 12 10.3616Z" fill="#884EA7"/>
</g>
<defs>
<clipPath id="clip0_444_3661">
<rect width="24" height="24" fill="white"/>
</clipPath>
</defs>
</svg>
