<svg width="24" height="24" viewBox="0 0 24 24" fill="none" xmlns="http://www.w3.org/2000/svg">
<g clip-path="url(#clip0_444_3705)">
<path d="M11.9998 -3.05176e-05C5.37229 -3.05176e-05 0 5.37238 0 12C0 18.6268 5.37229 24 11.9998 24C18.6273 24 24 18.6268 24 12C24 5.37238 18.6273 -3.05176e-05 11.9998 -3.05176e-05Z" fill="#884EA7"/>
<path d="M11.9998 -3.05176e-05C5.37229 -3.05176e-05 0 5.37238 0 12C0 18.6268 5.37229 24 11.9998 24C18.6273 24 24 18.6268 24 12C24 5.37238 18.6273 -3.05176e-05 11.9998 -3.05176e-05ZM9.30139 15.6942V8.30612L16.3562 12.0124L9.30139 15.6942Z" fill="#EBEBEB"/>
</g>
<defs>
<clipPath id="clip0_444_3705">
<rect width="24" height="24" fill="white"/>
</clipPath>
</defs>
</svg>
